<?xml version="1.0" encoding="utf-8"?>
<svg version="1.1" xmlns="http://www.w3.org/2000/svg" xmlns:xlink="http://www.w3.org/1999/xlink" x="0px" y="0px"
	 viewBox="0 0 60 60" style="enable-background:new 0 0 60 60;" xml:space="preserve">
	<style>
		tspan { white-space:pre }
		.shp0 { fill: #5c458e } 
		.shp1 { fill: #ffffff } 
	</style>
	<g id="Layer">
		<path id="Layer" class="shp0" d="M60 57C60 58.65 58.65 60 57 60L3 60C1.35 60 0 58.65 0 57L0 3C0 1.35 1.35 0 3 0L57 0C58.65 0 60 1.35 60 3L60 57Z" />
	</g>
	<g id="Layer">
		<path id="Layer" class="shp1" d="M37.22 18.51C36.97 18.75 36.97 19.12 37.22 19.37L42.63 24.78C42.88 25.03 43.25 25.03 43.49 24.78L45.03 23.25C46.02 22.32 46.02 20.85 45.03 19.86L42.14 16.97C41.15 15.98 39.62 15.98 38.63 16.97L37.22 18.51Z" />
		<path id="Layer" class="shp1" d="M16.29 44.66C16.17 45.28 16.72 45.83 17.34 45.71L24.05 44.11C24.29 44.05 24.48 43.92 24.6 43.8L24.72 43.68C24.85 43.55 24.91 43.12 24.66 42.88L19.12 37.34C18.88 37.09 18.45 37.15 18.32 37.28C18.2 37.4 18.2 37.4 18.2 37.4C18.02 37.58 17.95 37.77 17.89 37.95L16.29 44.66Z" />
		<path id="Layer" class="shp1" d="M20.85 35.55L26.32 41.03C26.57 41.28 26.94 41.28 27.18 41.03L40.85 27.31C41.09 27.06 41.09 26.69 40.85 26.45L35.43 21.03C35.18 20.78 34.82 20.78 34.57 21.03L20.85 34.75C20.6 35 20.6 35.37 20.85 35.55Z" />
	</g>
</svg>