<?xml version="1.0" encoding="utf-8"?>
<svg version="1.1" xmlns="http://www.w3.org/2000/svg" xmlns:xlink="http://www.w3.org/1999/xlink" x="0px" y="0px"
	 viewBox="0 0 60 60" style="enable-background:new 0 0 60 60;" xml:space="preserve">
    <style type="text/css">
        .st0{fill:#5C458E;}
        .st1{fill:#FFFFFF;}
    </style>
    <g>
        <path class="st0" d="M60,57c0,1.65-1.35,3-3,3H3c-1.65,0-3-1.35-3-3V3c0-1.65,1.35-3,3-3h54c1.65,0,3,1.35,3,3V57z"/>
    </g>
    <g>
        <g>
            <path class="st1" d="M36.88,15.21c-0.55-1.09-1.96-3.11-4.58-1.92c-1.62,0.75-2.53,1.17-2.53,1.17l-2.34,1.02
                c-0.66,0.32-2.11-0.13-2.92-0.43c-0.23-0.09-0.45,0.17-0.34,0.4c0.55,1.09,1.96,3.11,4.58,1.92c1.62-0.75,4.88-2.15,4.88-2.15
                c0.66-0.32,2.11,0.13,2.92,0.43C36.77,15.7,36.98,15.47,36.88,15.21z M31.25,18.64c-0.3,0.17-1.47,0.7-1.47,0.7l-1.17,0.51
                c-0.58,0.32-1.83-0.11-2.58-0.4c-0.21-0.11-0.4,0.17-0.3,0.38c0.47,1.07,1.73,2.98,4.03,1.81c1.43-0.72,2.64-1.19,2.64-1.19
                c0.58-0.32,1.83,0.11,2.58,0.4c0.21,0.09,0.4-0.17,0.3-0.4C34.79,19.39,33.53,17.47,31.25,18.64z M30.4,23.35
                c-0.23,0.13-0.64,0.38-0.64,0.38c-0.45,0.28-1.38-0.09-1.94-0.36c-0.15-0.09-0.3,0.17-0.21,0.38c0.34,0.96,1.28,2.68,3,1.62
                c0.64-0.4,0.64-0.38,0.64-0.38c0.47-0.23,1.38,0.09,1.94,0.34c0.15,0.09,0.3-0.17,0.21-0.38C33.06,24.01,32.19,22.37,30.4,23.35z"
                />
        </g>
        <g>
            <path class="st1" d="M29.06,27.7l-1-0.37c-0.03-0.01-0.08-0.02-0.1-0.02c-0.34-0.07-0.67,0.1-0.79,0.43l-0.83,2.28l0,0
                l-5.45,14.68c-0.13,0.35,0.06,0.74,0.41,0.87l1,0.37c0.35,0.13,0.74-0.06,0.87-0.41l5.45-14.68l0,0l0.83-2.28
                C29.6,28.22,29.41,27.83,29.06,27.7z M27.83,28.01l0.93,0.31l-0.75,2l-0.93-0.33L27.83,28.01z"/>
        </g>
        <path class="st1" d="M43.44,22.83c-0.29-0.1-0.53-0.34-0.63-0.63l-0.39-0.97c-0.05-0.15-0.29-0.15-0.34,0L41.7,22.2
            c-0.1,0.29-0.34,0.53-0.63,0.63l-0.97,0.39c-0.15,0.05-0.15,0.29,0,0.34l0.97,0.39c0.29,0.1,0.53,0.34,0.63,0.63l0.39,0.97
            c0.05,0.15,0.29,0.15,0.34,0l0.39-0.97c0.1-0.29,0.34-0.53,0.63-0.63l0.97-0.39c0.15-0.05,0.15-0.29,0-0.34L43.44,22.83z"/>
        <path class="st1" d="M20.47,23.27c-0.39-0.13-0.71-0.45-0.84-0.84l-0.52-1.3c-0.06-0.19-0.39-0.19-0.45,0l-0.52,1.3
            c-0.13,0.39-0.45,0.71-0.84,0.84L16,23.79c-0.19,0.06-0.19,0.39,0,0.45l1.3,0.52c0.39,0.13,0.71,0.45,0.84,0.84l0.52,1.3
            c0.06,0.19,0.39,0.19,0.45,0l0.52-1.3c0.13-0.39,0.45-0.71,0.84-0.84l1.3-0.52c0.19-0.06,0.19-0.39,0-0.45L20.47,23.27z"/>
        <path class="st1" d="M37.44,32.83c-0.29-0.1-0.53-0.34-0.63-0.63l-0.39-0.97c-0.05-0.15-0.29-0.15-0.34,0L35.7,32.2
            c-0.1,0.29-0.34,0.53-0.63,0.63l-0.97,0.39c-0.15,0.05-0.15,0.29,0,0.34l0.97,0.39c0.29,0.1,0.53,0.34,0.63,0.63l0.39,0.97
            c0.05,0.15,0.29,0.15,0.34,0l0.39-0.97c0.1-0.29,0.34-0.53,0.63-0.63l0.97-0.39c0.15-0.05,0.15-0.29,0-0.34L37.44,32.83z"/>
    </g>
</svg>